<?xml version="1.0" encoding="UTF-8"?>
<!DOCTYPE svg PUBLIC "-//W3C//DTD SVG 1.1//EN" "http://www.w3.org/Graphics/SVG/1.1/DTD/svg11.dtd">
<!-- Creator: CorelDRAW 2017 -->
<svg xmlns="http://www.w3.org/2000/svg" xml:space="preserve" width="85mm" height="65mm" version="1.1" style="shape-rendering:geometricPrecision; text-rendering:geometricPrecision; image-rendering:optimizeQuality; fill-rule:evenodd; clip-rule:evenodd"
viewBox="0 0 8500 6500"
 xmlns:xlink="http://www.w3.org/1999/xlink">
 <defs>
  <style type="text/css">
   <![CDATA[
    .str0 {stroke:#2B2A29;stroke-width:20;stroke-miterlimit:22.9256}
    .fil3 {fill:none}
    .fil4 {fill:#FEFEFE}
    .fil1 {fill:#2B2A29}
    .fil0 {fill:#0077CC}
    .fil6 {fill:#FBB308}
    .fil7 {fill:#FBB308}
    .fil5 {fill:#0066B0;fill-rule:nonzero}
    .fil2 {fill:#0066B0;fill-rule:nonzero}
   ]]>
  </style>
 </defs>
 <g id="Layer_x0020_1">
  <metadata id="CorelCorpID_0Corel-Layer"/>
  <polygon class="fil0" points="2980.48,2529.77 4783.23,83.73 8406.51,4955.48 4627.59,4970.34 "/>
  <circle class="fil1" transform="matrix(1.04028 0.000774387 -0.000774387 1.04028 500.343 3098.93)" r="206.94"/>
  <g id="_2166885169904">
   <path class="fil2" d="M1259.7 722.17c-3.64,-9.55 -7.05,-17.22 -10.22,-23.16 -3.2,-5.92 -7.96,-8.89 -14.31,-8.89l-407.92 0c-6.39,0 -11.14,2.97 -14.33,8.89 -3.18,5.94 -6.6,13.61 -10.24,23.16l-24.56 73.66 0 13.02c12.3,-9.55 24.44,-19.46 36.5,-29.67 12.05,-10.26 24.56,-19.82 37.52,-28.65 12.95,-8.9 26.26,-16.27 39.9,-22.21 13.66,-5.86 28.42,-9.55 44.36,-10.85 12.71,24.53 19.1,48.62 19.1,72.29l0 329.43c0,15.99 1.23,32.49 3.74,49.86 2.5,17.22 9.19,33.86 20.14,49.7l190.98 0c-10.93,-15.84 -17.62,-32.48 -20.11,-49.7 -2.52,-17.37 -3.78,-33.87 -3.78,-49.86l0 -329.43c0,-23.67 -6.35,-47.76 -19.09,-72.29 15.45,1.3 30.01,5.06 43.67,11.21 13.62,6.16 26.81,13.53 39.54,22.15 12.73,8.68 25.12,18.09 37.19,28.35 12.05,10.21 24.2,20.12 36.47,29.67l0 -13.02 -24.55 -73.66z"/>
   <path class="fil2" d="M2007.7 1169.05c-2.51,-17.37 -3.76,-33.87 -3.76,-49.86l0 -329.43c0,-15.92 -2.96,-32.49 -8.86,-49.79 -5.93,-17.29 -14.8,-33.93 -26.61,-49.85l-190.98 0c11.83,15.92 20.69,32.56 26.59,49.85 5.91,17.3 8.88,33.87 8.88,49.79l0 115.26 -115.97 0 0 -115.26c0,-15.92 -2.97,-32.49 -8.88,-49.79 -5.9,-17.29 -14.76,-33.93 -26.59,-49.85l-191 0c11.81,15.92 20.69,32.56 26.61,49.85 5.89,17.3 8.86,33.87 8.86,49.79l0 329.43c0,15.99 1.25,32.49 3.76,49.86 2.5,17.22 9.21,33.86 20.12,49.7l191 0c-10.93,-15.84 -17.64,-32.48 -20.13,-49.7 -2.5,-17.37 -3.75,-33.87 -3.75,-49.86l0 -173.3 115.97 0 0 173.3c0,15.99 1.25,32.49 3.75,49.86 2.49,17.22 9.2,33.86 20.11,49.7l190.98 0c-10.9,-15.84 -17.62,-32.48 -20.1,-49.7z"/>
   <path class="fil2" d="M2764.86 1169.05c-2.5,-17.37 -3.76,-33.87 -3.76,-49.86l0 -329.43c0,-15.92 -2.93,-32.49 -8.83,-49.79 -5.93,-17.29 -14.79,-33.93 -26.62,-49.85l-497.96 0c11.83,15.92 20.72,32.56 26.63,49.85 5.9,17.3 8.86,33.87 8.86,49.79l0 329.43c0,15.99 1.25,32.49 3.75,49.86 2.49,17.22 9.21,33.86 20.13,49.7l190.98 0c-10.93,-15.84 -17.62,-32.48 -20.11,-49.7 -2.5,-17.37 -3.77,-33.87 -3.77,-49.86l0 -329.43c0,-19.11 -4.05,-38.65 -12.3,-58.69l116 0c8.17,20.04 12.29,39.58 12.29,58.69l0 329.43c0,15.99 1.23,32.49 3.76,49.86 2.47,17.22 9.2,33.86 20.12,49.7l190.94 0c-10.92,-15.84 -17.61,-32.48 -20.11,-49.7z"/>
   <path class="fil2" d="M3402.99 695.12c-13.2,17.29 -24.2,37.99 -33.1,62.08 -8.86,24.1 -16.93,50.36 -24.24,78.8 -7.23,28.43 -14.54,58.46 -21.78,90.08 -7.31,31.62 -15.7,63.31 -25.25,95.08l-90.01 -226.4c-6.44,-15.92 -14.15,-32.49 -23.23,-49.79 -9.11,-17.29 -22.5,-33.93 -40.23,-49.85l-202.59 0c17.73,15.92 33.06,32.56 46.01,49.85 12.95,17.3 22.65,33.87 29.02,49.79l131.62 329.43c6.37,15.49 13.74,31.26 22.17,47.47 8.43,16.13 20.37,31.69 35.82,46.66 -5.46,13.17 -12.48,26.63 -21.17,40.31 -8.61,13.6 -17.72,26.12 -27.24,37.47 -9.58,11.37 -19.21,20.56 -28.97,27.65 -9.81,7.02 -18.53,10.57 -26.27,10.57 -6.88,0 -10.28,-6.66 -10.28,-19.83 0,-6.81 0.8,-14.55 2.43,-23.16 1.56,-8.61 3.72,-17.72 6.48,-27.35 2.7,-9.48 5.78,-18.81 9.18,-27.93 3.44,-9.05 6.95,-17.43 10.61,-25.17l-83.9 23.15c-10.03,18.15 -15.05,36.32 -15.05,54.55 0,21.86 7.16,40.38 21.49,55.57 14.32,15.35 34.22,22.87 59.69,22.87 12.73,0 26.05,-4.49 39.94,-13.61 13.82,-9.11 27.24,-20.76 40.23,-34.8 12.95,-14.11 25.11,-29.52 36.47,-46.38 11.4,-16.78 20.91,-33.13 28.65,-49.13l0.69 0c28.18,-46.38 50.9,-93.41 68.23,-141.16 17.26,-47.76 33.18,-94.5 47.72,-140.23 14.58,-45.66 29.81,-89.43 45.73,-131.26 15.91,-41.82 36.61,-80.3 62.08,-115.33l-70.95 0z"/>
  </g>
  <path class="fil3" d="M3598.39 4585.23l1515.68 0c25.52,0 46.39,20.87 46.39,46.37l0 108.3c0,25.5 -20.87,46.38 -46.39,46.38l-1515.68 0c-25.5,0 -46.37,-20.88 -46.37,-46.38l0 -108.3c0,-25.5 20.87,-46.37 46.37,-46.37z"/>
  <path class="fil1" d="M4036.05 974.27c62.23,-101.31 194.8,-132.98 296.13,-70.75 101.3,62.24 132.97,194.82 70.73,296.12 -62.24,101.31 -194.81,132.98 -296.11,70.75 -101.31,-62.25 -132.99,-194.82 -70.75,-296.12z"/>
  <g id="_2166885157808">
   <circle class="fil1 str0" cx="2775.37" cy="2689.67" r="350.78"/>
   <circle class="fil4 str0" cx="2670.48" cy="2529.77" r="110"/>
  </g>
  <path class="fil5" d="M4745.29 6110.42l0 -870.04 163.32 0 409.68 526.07 399.87 -526.07 161.9 0 0 870.04 -186.88 0 0 -537.59c0,-10.4 0.57,-23.61 1.96,-39.35 1.41,-16.02 3.37,-33.72 5.34,-53.67 -10.95,22.48 -20.48,41.03 -28.62,55.64 -8.42,14.61 -15.72,26.42 -22.17,35.69l-326.63 434.74 -40.13 0 -327.46 -436.15c-12.07,-16.58 -22.45,-32.03 -30.87,-46.65 -8.41,-14.61 -15.43,-28.66 -21.04,-42.43 1.68,18.27 3.08,34.57 3.92,49.46 0.85,14.89 1.13,28.95 1.13,42.72l0 537.59 -163.32 0zm3268.22 -714.92l0 714.92 -202.04 0 0 -714.92 -399.02 0 0 -155.12 1001.77 0 0 155.12 -400.71 0z"/>
  <path class="fil5" d="M6782.25 5227.07l520.28 887.73 -1066.47 0 520.01 -887.73 26.18 0zm-68.45 206.16l-359.67 625.69 723.16 0 -363.49 -625.69z"/>
  <g id="_2166885156944">
   <polygon class="fil6" points="6463.68,4683.21 6484,4607.97 6460.29,4539.1 6535.53,4559.42 6604.39,4535.71 6584.08,4610.95 6607.79,4679.81 6532.55,4659.5 "/>
   <polygon class="fil4" points="6458.3,4530.85 6478.62,4455.61 6454.91,4386.74 6530.14,4407.06 6599.01,4383.35 6578.7,4458.59 6602.41,4527.45 6527.17,4507.14 "/>
   <polygon class="fil4" points="6467.29,4836.5 6487.61,4761.26 6463.9,4692.4 6539.14,4712.71 6608,4689 6587.69,4764.24 6611.4,4833.11 6536.16,4812.79 "/>
   <polygon class="fil6" points="6619.25,4832.92 6639.56,4757.68 6615.85,4688.82 6691.09,4709.13 6759.96,4685.42 6739.64,4760.66 6763.35,4829.52 6688.11,4809.21 "/>
   <polygon class="fil6" points="6610.26,4527.27 6630.57,4452.03 6606.86,4383.16 6682.1,4403.48 6750.96,4379.77 6730.65,4455.01 6754.36,4523.87 6679.12,4503.56 "/>
   <polygon class="fil4" points="6311.72,4686.34 6332.03,4611.1 6308.32,4542.24 6383.56,4562.55 6452.43,4538.84 6432.11,4614.08 6455.82,4682.95 6380.58,4662.63 "/>
   <polygon class="fil4" points="6769.41,4829.38 6789.73,4754.14 6766.02,4685.28 6841.26,4705.59 6910.12,4681.88 6889.81,4757.12 6913.52,4825.99 6838.28,4805.67 "/>
   <polygon class="fil4" points="6758.63,4523.77 6778.95,4448.53 6755.24,4379.67 6830.48,4399.98 6899.34,4376.27 6879.03,4451.51 6902.74,4520.38 6827.5,4500.06 "/>
   <polygon class="fil6" points="6762.21,4675.72 6782.53,4600.49 6758.82,4531.62 6834.06,4551.93 6902.92,4528.22 6882.61,4603.46 6906.32,4672.33 6831.08,4652.01 "/>
   <polygon class="fil4" points="6910.59,4672.23 6930.91,4596.99 6907.2,4528.12 6982.44,4548.44 7051.3,4524.73 7030.99,4599.97 7054.7,4668.83 6979.46,4648.52 "/>
  </g>
  <g id="_2166885151184">
   <polygon class="fil6" points="7235.58,4668.44 7254.57,4592.85 7229.64,4524.42 7305.23,4543.4 7373.67,4518.48 7354.68,4594.07 7379.6,4662.5 7304.02,4643.52 "/>
   <polygon class="fil4" points="7227.51,4516.2 7246.5,4440.61 7221.58,4372.18 7297.16,4391.16 7365.6,4366.24 7346.62,4441.83 7371.54,4510.26 7295.95,4491.28 "/>
   <polygon class="fil4" points="7241.89,4821.64 7260.88,4746.06 7235.96,4677.62 7311.54,4696.61 7379.98,4671.69 7360.99,4747.27 7385.92,4815.71 7310.33,4796.72 "/>
   <polygon class="fil6" points="7393.76,4815.39 7412.75,4739.8 7387.82,4671.36 7463.41,4690.35 7531.85,4665.43 7512.86,4741.01 7537.78,4809.45 7462.2,4790.46 "/>
   <polygon class="fil6" points="7379.38,4509.94 7398.37,4434.35 7373.45,4365.92 7449.03,4384.9 7517.47,4359.98 7498.48,4435.57 7523.4,4504 7447.82,4485.02 "/>
   <polygon class="fil4" points="7083.69,4674.25 7102.68,4598.66 7077.76,4530.23 7153.34,4549.21 7221.78,4524.29 7202.8,4599.88 7227.72,4668.31 7152.13,4649.33 "/>
   <polygon class="fil4" points="7543.84,4809.2 7562.82,4733.61 7537.9,4665.18 7613.49,4684.16 7681.93,4659.24 7662.94,4734.83 7687.86,4803.26 7612.28,4784.28 "/>
   <polygon class="fil4" points="7527.67,4503.83 7546.66,4428.24 7521.74,4359.81 7597.32,4378.79 7665.76,4353.87 7646.78,4429.46 7671.7,4497.89 7596.11,4478.91 "/>
   <polygon class="fil6" points="7533.93,4655.69 7552.92,4580.11 7528,4511.67 7603.58,4530.66 7672.02,4505.74 7653.03,4581.32 7677.96,4649.76 7602.37,4630.77 "/>
   <polygon class="fil4" points="7682.23,4649.58 7701.21,4574 7676.29,4505.56 7751.88,4524.55 7820.31,4499.62 7801.33,4575.21 7826.25,4643.65 7750.66,4624.66 "/>
  </g>
  <g id="_2166885148368">
   <polygon class="fil6" points="5677.39,4693.07 5697.7,4617.83 5673.99,4548.96 5749.23,4569.28 5818.1,4545.57 5797.78,4620.81 5821.49,4689.67 5746.25,4669.36 "/>
   <polygon class="fil4" points="5672.01,4540.71 5692.32,4465.47 5668.61,4396.61 5743.85,4416.92 5812.72,4393.21 5792.4,4468.45 5816.11,4537.31 5740.87,4517 "/>
   <polygon class="fil4" points="5681,4846.36 5701.31,4771.12 5677.6,4702.26 5752.84,4722.57 5821.71,4698.86 5801.39,4774.1 5825.1,4842.97 5749.87,4822.65 "/>
   <polygon class="fil6" points="5832.95,4842.78 5853.27,4767.54 5829.56,4698.68 5904.8,4718.99 5973.66,4695.28 5953.35,4770.52 5977.06,4839.38 5901.82,4819.07 "/>
   <polygon class="fil6" points="5823.96,4537.13 5844.28,4461.89 5820.57,4393.02 5895.8,4413.34 5964.67,4389.63 5944.36,4464.87 5968.07,4533.73 5892.83,4513.42 "/>
   <polygon class="fil4" points="5525.42,4696.2 5545.74,4620.96 5522.03,4552.1 5597.27,4572.41 5666.13,4548.7 5645.82,4623.94 5669.53,4692.81 5594.29,4672.49 "/>
   <polygon class="fil4" points="5983.12,4839.24 6003.43,4764 5979.72,4695.14 6054.96,4715.45 6123.83,4691.74 6103.51,4766.98 6127.22,4835.85 6051.98,4815.53 "/>
   <polygon class="fil4" points="5972.34,4533.63 5992.65,4458.39 5968.94,4389.53 6044.18,4409.84 6113.05,4386.13 6092.73,4461.37 6116.44,4530.24 6041.2,4509.92 "/>
   <polygon class="fil6" points="5975.92,4685.59 5996.23,4610.35 5972.52,4541.48 6047.76,4561.8 6116.63,4538.08 6096.31,4613.32 6120.02,4682.19 6044.78,4661.87 "/>
   <polygon class="fil4" points="6124.3,4682.09 6144.61,4606.85 6120.9,4537.98 6196.14,4558.3 6265.01,4534.59 6244.69,4609.83 6268.4,4678.69 6193.16,4658.38 "/>
  </g>
  <path class="fil1" d="M4237.61 1990.17l1629.02 -3.31c108.29,-0.22 196.88,88.61 196.88,196.89l0 1616.15c0,108.31 -88.6,196.91 -196.88,196.91l-2754.36 0c59.8,-72.71 119.26,-149.35 177.99,-229.71l2450.66 0c89.3,0 162.34,-73.02 162.34,-162.32l0 -1332.55c0,-89.26 -73.05,-162.5 -162.34,-162.32l-1532.99 3.31c10.91,-41.67 20.84,-82.71 29.68,-123.05z"/>
  <path class="fil1" d="M3753.32 4283.61l910.64 0 -1.01 -3.63 -506.63 0c-12.43,0 -22.55,-10.13 -22.55,-22.54l0 -33.81c0,-12.41 10.12,-22.53 22.55,-22.53l484.72 0 -59.12 -212.83 -752.72 0 -75.88 295.34z"/>
  <rect class="fil1" x="3482.15" y="4272.83" width="1405.09" height="215.41" rx="63.75" ry="51.89"/>
  <polygon class="fil7" points="2177.63,2202.71 55.6,5009.04 4118.35,4973.27 "/>
  <path class="fil1" d="M3687.2 573.54c134.61,-46.42 247.82,-46.15 332.26,5.72 376.82,231.49 77.7,1403.3 -668.09,2617.29 -692.06,1126.57 -1526.68,1895.29 -1943.37,1813.49l-195.01 0c26.48,38.95 58.54,70.31 96.17,93.42 418.7,257.22 1388.86,-560.98 2166.93,-1827.52 778.07,-1266.54 1068.5,-2500.3 650.72,-2759 -120.35,-74.53 -287.52,-61.76 -484.96,30.69l45.35 25.91z"/>
  <path class="fil1" d="M3262.25 1535.95l4.03 113.12 361.11 -9.06 -9.67 -238.98 -2926.82 -6.42 1135.99 1524.3 -1147.58 1495.32 1588.38 0 103.88 -120.84 -1193.4 6.25 1073.11 -1381.3 -1067.32 -1385.03 2078.29 2.64zm-490.96 2884.9l784.77 -6.62 3.69 -252.89 -313.7 1.78 6.56 126.3 -384.28 8.65 -97.04 122.78z"/>
  <path class="fil5" d="M598.54 6119.65l0 -870.04 1019.69 0 0 151.75 -785.29 0 0 229.31 423.9 0 0 158.5 -423.9 0 0 330.48 -234.4 0zm2409.09 0l0 -94.7 704.53 -620.22 -634.21 0 0 -155.12 1011.88 0 0 86.55 -715.27 619.94 715.27 0 0 163.55 -1082.2 0zm-1193.54 -396.24l160.18 33.72c-19.53,-33.72 -29.3,-76.44 -29.3,-128.14 0,-133.77 63.81,-229.32 191.43,-286.65 -23.44,-83.18 -35.16,-153.43 -35.16,-210.76 0,-84.31 17.58,-154.56 52.74,-210.77 46.88,-76.44 122.42,-114.66 226.6,-114.66 61.21,0 107.44,12.93 138.69,38.79 23.44,19.11 35.17,42.71 35.17,70.81 0,47.21 -24.75,70.82 -74.23,70.82 -44.28,0 -76.19,-24.17 -95.72,-72.5 -14.33,-33.73 -35.82,-50.59 -64.47,-50.59 -40.36,0 -71.62,20.24 -93.76,60.7 -19.53,33.73 -29.3,74.19 -29.3,121.41 0,70.81 22.14,156.24 66.42,256.29 28.65,-4.5 51.44,-6.75 68.36,-6.75 101.58,0 188.18,25.86 259.81,77.56 84.65,61.83 126.97,147.26 126.97,256.3 0,59.57 -16.28,115.22 -48.83,166.92 -32.56,51.71 -79.44,91.62 -140.65,119.72 28.65,71.94 42.98,150.06 42.98,234.37 0,74.19 -13.03,137.7 -39.08,190.53 -45.57,89.93 -125.01,134.89 -238.32,134.89 -61.2,0 -107.43,-12.92 -138.68,-38.78 -24.75,-20.23 -37.12,-43.84 -37.12,-70.82 0,-47.21 25.39,-70.81 76.18,-70.81 44.28,0 75.54,24.73 93.77,74.19 11.72,32.6 33.21,48.9 64.46,48.9 41.68,0 74.23,-19.68 97.68,-59.02 18.22,-33.72 27.34,-74.75 27.34,-123.09 0,-59.57 -26.04,-152.31 -78.13,-278.21 -20.84,4.5 -43.63,6.75 -68.38,6.75 -97.67,0 -194.04,-33.73 -289.11,-101.17 -75.52,-42.72 -154.96,-77.56 -238.31,-104.54l9.77 -35.41zm296.92 -114.66l31.26 10.12c-19.54,77.56 -27.36,150.06 -23.45,217.51 53.39,46.09 124.37,69.13 212.92,69.13 9.12,0 24.1,-1.12 44.93,-3.37 -46.87,-102.29 -93.76,-204.02 -140.64,-305.19 -31.26,-68.57 -57.95,-134.89 -80.09,-198.96 -96.37,50.58 -144.55,127.58 -144.55,231 0,40.46 9.76,79.24 29.3,116.34l70.32 -136.58zm175.81 -252.92c98.97,206.84 173.2,374.89 222.69,504.16 95.07,-57.33 142.6,-134.33 142.6,-231 0,-97.8 -39.72,-171.43 -119.17,-220.89 -58.59,-38.22 -125.66,-57.33 -201.2,-57.33 -14.32,0 -29.3,1.69 -44.92,5.06z"/>
  <path class="fil1" d="M4997.36 2297.82c282.02,133.09 440.68,288.99 440.55,451.5 -0.31,442.25 -1155.61,799.91 -2580.39,798.84 -341.77,-0.25 -668.08,-21.16 -966.73,-58.86l-98.09 133.83c325.92,46.6 685.03,72.58 1062.37,72.86 1486.45,1.09 2691.74,-396.36 2692.1,-887.74 0.14,-195.74 -194.31,-382.68 -541.75,-531.79l-8.06 21.36zm-3714.2 1082.9c-612.21,-146.86 -1006.55,-376.9 -1004.85,-635.25 1.31,-200.82 387.1,-433.17 756.19,-569.73l-8.43 -14.3c-544.33,157.08 -861.6,393.05 -861.78,642.8 -0.21,283.89 401.9,536.96 1028.09,700.33l90.78 -123.85z"/>
 </g>
</svg>
